<svg xmlns="http://www.w3.org/2000/svg" width="64" height="64" viewBox="0 0 64 64"><g class="nc-icon-wrapper" stroke-linecap="square" stroke-linejoin="miter" stroke-width="2" fill="#111111" stroke="#111111"><polygon fill="none" stroke="#111111" stroke-miterlimit="10" points="20,20 2,20 2,2 20,2 20,2 "/> <rect data-color="color-2" x="8" y="8" fill="none" stroke-miterlimit="10" width="6" height="6"/> <polygon fill="none" stroke="#111111" stroke-miterlimit="10" points="20,62 2,62 2,44 20,44 20,44 "/> <rect data-color="color-2" x="8" y="50" fill="none" stroke-miterlimit="10" width="6" height="6"/> <polygon fill="none" stroke="#111111" stroke-miterlimit="10" points="62,20 44,20 44,2 62,2 62,2 "/> <rect data-color="color-2" x="50" y="8" fill="none" stroke-miterlimit="10" width="6" height="6"/> <polyline fill="none" stroke="#111111" stroke-miterlimit="10" points="62,61 40,61 40,58 "/> <polyline fill="none" stroke="#111111" stroke-miterlimit="10" points="34,61 30,61 30,52 26,52 26,45 "/> <line fill="none" stroke="#111111" stroke-miterlimit="10" x1="26" y1="59" x2="30" y2="59"/> <polyline fill="none" stroke="#111111" stroke-miterlimit="10" points="38,2 38,8 32,8 32,2 26,2 26,14 32,14 32,25 21,25 "/> <line fill="none" stroke="#111111" stroke-miterlimit="10" x1="26" y1="19" x2="32" y2="19"/> <polyline fill="none" stroke="#111111" stroke-miterlimit="10" points="2,26 7,26 7,30 17,30 17,39 25,39 "/> <line fill="none" stroke="#111111" stroke-miterlimit="10" x1="12" y1="36" x2="17" y2="36"/> <line fill="none" stroke="#111111" stroke-miterlimit="10" x1="13" y1="26" x2="13" y2="30"/> <polyline fill="none" stroke="#111111" stroke-miterlimit="10" points="23,34 23,31 31,31 31,42 36,42 36,53 48,53 "/> <line fill="none" stroke="#111111" stroke-miterlimit="10" x1="42" y1="49" x2="42" y2="53"/> <polyline fill="none" stroke="#111111" stroke-miterlimit="10" points="42,37 42,43 48,43 48,37 62,37 "/> <polyline fill="none" stroke="#111111" stroke-miterlimit="10" points="62,34 62,49 57,49 57,55 62,55 "/> <polyline fill="none" stroke="#111111" stroke-miterlimit="10" points="38,23 38,31 53,31 "/> <line fill="none" stroke="#111111" stroke-miterlimit="10" x1="44" y1="26" x2="53" y2="26"/> <line fill="none" stroke="#111111" stroke-miterlimit="10" x1="47" y1="26" x2="47" y2="31"/> <line fill="none" stroke="#111111" stroke-miterlimit="10" x1="49" y1="26" x2="49" y2="31"/> <line fill="none" stroke="#111111" stroke-miterlimit="10" x1="55" y1="42" x2="55" y2="37"/> <polyline fill="none" stroke="#111111" stroke-miterlimit="10" points="2,38 2,36 6,36 "/> <polyline fill="none" stroke="#111111" stroke-miterlimit="10" points="62,28 62,25 59,25 "/> <line fill="none" stroke="#111111" stroke-miterlimit="10" x1="48" y1="56" x2="48" y2="49"/> <line fill="none" stroke="#111111" stroke-miterlimit="10" x1="26" y1="4" x2="32" y2="4"/> <line fill="none" stroke="#111111" stroke-miterlimit="10" x1="42" y1="41" x2="48" y2="41"/></g></svg>