<svg xmlns="http://www.w3.org/2000/svg" width="64" height="64" viewBox="0 0 64 64"><title>biochemistry</title><g stroke-linecap="square" stroke-linejoin="miter" stroke-width="2" fill="#111111" stroke="#111111"><polyline points="46.333 39 42.25 46 34.083 46" fill="none" stroke="#111111" stroke-miterlimit="10" stroke-linecap="butt"></polyline><line x1="9.583" y1="18" x2="5.5" y2="11" fill="none" stroke="#111111" stroke-miterlimit="10" stroke-linecap="butt"></line><line x1="17.75" y1="4" x2="21.833" y2="11" fill="none" stroke="#111111" stroke-miterlimit="10" stroke-linecap="butt"></line><polyline points="42.25 18 46.333 11 55 11" fill="none" stroke="#111111" stroke-miterlimit="10" stroke-linecap="butt"></polyline><line x1="34.083" y1="4" x2="30" y2="11" fill="none" stroke="#111111" stroke-miterlimit="10" stroke-linecap="butt"></line><line x1="54.5" y1="39" x2="58.583" y2="46" fill="none" stroke="#111111" stroke-miterlimit="10" stroke-linecap="butt"></line><line x1="34.083" y1="60" x2="30" y2="53" fill="none" stroke="#111111" stroke-miterlimit="10" stroke-linecap="butt"></line><polyline points="21.833 53 17.75 60 9.583 60 5.5 53 9.583 46 17.75 46" fill="none" stroke="#111111" stroke-miterlimit="10" stroke-linecap="butt"></polyline><line x1="42.25" y1="32" x2="34.083" y2="32" fill="none" stroke="#111111" stroke-miterlimit="10" stroke-linecap="butt"></line><polyline points="34.083 18 42.25 18 46.333 25" fill="none" stroke="#111111" stroke-miterlimit="10" stroke-linecap="butt"></polyline><line x1="21.833" y1="39" x2="17.75" y2="32" fill="none" stroke="#111111" stroke-miterlimit="10" stroke-linecap="butt"></line><polyline points="30 25 34.083 32 30 39" fill="none" stroke="#111111" stroke-miterlimit="10" stroke-linecap="butt"></polyline><polyline points="21.833 25 17.75 32 9.583 32 5.5 25 9.583 18 17.75 18" fill="none" stroke="#111111" stroke-miterlimit="10" stroke-linecap="butt"></polyline><polygon points="21.833 11 30 11 34.083 18 30 25 21.833 25 17.75 18 21.833 11" fill="none" stroke-miterlimit="10" stroke-linecap="butt"></polygon><polygon points="34.083 46 30 53 21.833 53 17.75 46 21.833 39 30 39 34.083 46" fill="none" stroke-miterlimit="10" stroke-linecap="butt"></polygon><polygon points="46.333 25 54.5 25 58.583 32 54.5 39 46.333 39 42.25 32 46.333 25" fill="none" stroke-miterlimit="10" stroke-linecap="butt"></polygon></g></svg>