<svg xmlns="http://www.w3.org/2000/svg" width="64" height="64" viewBox="0 0 64 64"><g class="nc-icon-wrapper" fill="#111111"><path d="M32,2A30,30,0,1,0,62,32,30.034,30.034,0,0,0,32,2ZM46,28a2,2,0,1,1-2-2A2,2,0,0,1,46,28ZM25,20a2,2,0,1,1-2,2A2,2,0,0,1,25,20ZM15,19a2,2,0,1,1-2,2A2,2,0,0,1,15,19ZM10,32a3,3,0,1,1,3,3A3,3,0,0,1,10,32Zm6,14a2,2,0,1,1,2-2A2,2,0,0,1,16,46Zm7-10a2,2,0,1,1,2,2A2,2,0,0,1,23,36Zm3,12a2,2,0,1,1,2-2A2,2,0,0,1,26,48Zm2-36a2,2,0,1,1,2-2A2,2,0,0,1,28,12Zm4,43a2,2,0,1,1,2-2A2,2,0,0,1,32,55ZM31,29a3,3,0,1,1,3,3A3,3,0,0,1,31,29Zm7,12a2,2,0,1,1,2-2A2,2,0,0,1,38,41ZM37,15a3,3,0,1,1,3,3A3,3,0,0,1,37,15Zm8,36a3,3,0,1,1,3-3A3,3,0,0,1,45,51Zm6-11a2,2,0,1,1,2-2A2,2,0,0,1,51,40Zm1-16a2,2,0,1,1,2-2A2,2,0,0,1,52,24Z" fill="#111111"/></g></svg>