<svg xmlns="http://www.w3.org/2000/svg" width="64" height="64" viewBox="0 0 64 64"><g class="nc-icon-wrapper" stroke-linecap="square" stroke-linejoin="miter" stroke-width="2" fill="#111111" stroke="#111111"><path data-cap="butt" fill="none" stroke="#111111" stroke-miterlimit="10" d="M2,18.4l7.7-4.6 c3.6-2.2,8.2-2.1,11.7,0.3l4.6,3c3.7,2.4,8.4,2.4,12.1,0l4.6-3c3.5-2.3,8-2.4,11.7-0.3l7.7,4.6" stroke-linecap="butt"/> <path data-cap="butt" fill="none" stroke="#111111" stroke-miterlimit="10" d="M2,51.3l7.7-4.6 c3.6-2.2,8.2-2.1,11.7,0.3l4.6,3c3.7,2.4,8.4,2.4,12.1,0l4.6-3c3.5-2.3,8-2.4,11.7-0.3l7.7,4.6" stroke-linecap="butt"/> <path data-cap="butt" data-color="color-2" fill="none" stroke-miterlimit="10" d="M2,34.8l7.7-4.6 c3.6-2.2,8.2-2.1,11.7,0.3l4.6,3c3.7,2.4,8.4,2.4,12.1,0l4.6-3c3.5-2.3,8-2.4,11.7-0.3l7.7,4.6" stroke-linecap="butt"/></g></svg>