<svg xmlns="http://www.w3.org/2000/svg" width="64" height="64" viewBox="0 0 64 64"><g class="nc-icon-wrapper" fill="#111111"><path data-color="color-2" d="M28,16a1,1,0,0,0,0-2H11V4A1,1,0,0,0,9,4V49a1,1,0,0,0,1,1H28a1,1,0,0,0,0-2H11V16Z"/><path d="M47.707,35.293A1,1,0,0,0,47,35H34a1,1,0,0,0-1,1V62a1,1,0,0,0,1,1H54a1,1,0,0,0,1-1V43a1,1,0,0,0-.293-.707Z" fill="#111111"/><path d="M54.707,8.293l-7-7A1,1,0,0,0,47,1H34a1,1,0,0,0-1,1V28a1,1,0,0,0,1,1H54a1,1,0,0,0,1-1V9A1,1,0,0,0,54.707,8.293Z" fill="#111111"/></g></svg>