<svg xmlns="http://www.w3.org/2000/svg" width="64" height="64" viewBox="0 0 64 64"><title>machinelearning2</title><g fill="#111111"><path d="M32,40a6,6,0,1,1,6-6A6.006,6.006,0,0,1,32,40Z"></path><path d="M57,20a5.978,5.978,0,0,0-4.213,1.734L37.379,10.641A5.945,5.945,0,0,0,38,8,6,6,0,0,0,26,8a5.945,5.945,0,0,0,.621,2.641L11.213,21.734A6,6,0,1,0,7,32a5.861,5.861,0,0,0,.741-.051l5.6,18.679A6,6,0,1,0,21.91,57H42.09a6,6,0,1,0,8.566-6.372l5.6-18.679A5.861,5.861,0,0,0,57,32a6,6,0,0,0,0-12ZM48.741,50.051A6.053,6.053,0,0,0,48,50a5.961,5.961,0,0,0-2.667.633L37.472,39.825a7.992,7.992,0,0,1-1.613,1.181l7.856,10.8A5.989,5.989,0,0,0,42.09,55H21.91a5.989,5.989,0,0,0-1.625-3.192l7.856-10.8a7.992,7.992,0,0,1-1.613-1.181L18.667,50.633A5.961,5.961,0,0,0,16,50a6.053,6.053,0,0,0-.741.051l-5.6-18.679a6.029,6.029,0,0,0,2.67-2.618l11.815,3.78a7.928,7.928,0,0,1,.612-1.9L12.933,26.849A6.09,6.09,0,0,0,13,26a5.948,5.948,0,0,0-.621-2.641L27.787,12.266A5.991,5.991,0,0,0,31,13.91V26.069a7.281,7.281,0,0,1,2,0V13.91a5.991,5.991,0,0,0,3.213-1.644L51.621,23.359A5.948,5.948,0,0,0,51,26a6.09,6.09,0,0,0,.067.849L39.248,30.631a7.928,7.928,0,0,1,.612,1.9l11.815-3.78a6.029,6.029,0,0,0,2.67,2.618Z" fill="#111111"></path></g></svg>