<svg xmlns="http://www.w3.org/2000/svg" width="64" height="64" viewBox="0 0 64 64"><g class="nc-icon-wrapper" stroke-linecap="square" stroke-linejoin="miter" stroke-width="2" fill="#111111" stroke="#111111"><path data-cap="butt" data-color="color-2" fill="none" stroke-miterlimit="10" d="M28,16c0,7.2-5.8,13-13,13 S2,23.2,2,16S7.8,3,15,3c5.2,0,9.8,3.1,11.8,7.6" stroke-linecap="butt"/> <polyline data-color="color-2" fill="none" stroke-miterlimit="10" points=" 27.9,3 26.9,10.7 19.2,9.7 "/> <path data-cap="butt" fill="none" stroke="#111111" stroke-miterlimit="10" d="M55.58199,35.72752 c5.94951,0.95343,7.21284,6.05318,6.00115,10.65759L57.47396,62H34.84772L21.99317,45.30115 c-1.66663-1.76814-1.58431-4.55253,0.18383-6.21916s4.55261-1.58431,6.21916,0.18383l2.39157,2.57952 c1.47731,1.5934,4.1746,0.69378,4.34932-1.47205c0.48235-5.97929-0.6003-13.35511-2.64539-16.57785 c-1.22624-1.93244-0.47562-4.55496,1.72158-5.49881c1.71755-0.73781,3.73649-0.00708,4.7239,1.58017 c1.78108,2.86306,3.35128,7.34892,4.14952,12.15981c0.21727,1.28635,0.50694,3.98991,0.60349,4.98765" stroke-linecap="butt"/> <path data-cap="butt" fill="none" stroke="#111111" stroke-miterlimit="10" d="M43.01293,31.60604 c6.1809-0.56824,8.11201,3.56065,8.11201,8.12177" stroke-linecap="butt"/> <path data-cap="butt" fill="none" stroke="#111111" stroke-miterlimit="10" d="M49.21962,33.54884 c5.38132-0.67648,7.76303,2.21489,7.50555,7.76678" stroke-linecap="butt"/></g></svg>