<svg xmlns="http://www.w3.org/2000/svg" width="64" height="64" viewBox="0 0 64 64"><title>snow</title><g fill="#111111"><path fill="#111111" d="M5.538,17.866l9.168,5.293l-8.596,2.303c-0.533,0.143-0.85,0.691-0.707,1.225 c0.119,0.447,0.523,0.742,0.965,0.742c0.086,0,0.173-0.011,0.26-0.035l10.528-2.821l7.475,4.315 c0.263-0.621,0.609-1.196,1.013-1.725l-7.487-4.323l-2.821-10.528c-0.144-0.534-0.689-0.85-1.225-0.707 c-0.533,0.143-0.85,0.691-0.707,1.225l2.304,8.596l-9.168-5.293c-0.478-0.276-1.09-0.113-1.366,0.366 C4.896,16.979,5.06,17.59,5.538,17.866z"></path> <path fill="#111111" d="M31.02,15.414v8.652C31.342,24.027,31.667,24,32,24c0.346,0,0.685,0.03,1.02,0.072v-8.658l7.707-7.707 c0.391-0.391,0.391-1.023,0-1.414s-1.023-0.391-1.414,0l-6.293,6.293V2c0-0.552-0.447-1-1-1s-1,0.448-1,1v10.586l-6.293-6.293 c-0.391-0.391-1.023-0.391-1.414,0s-0.391,1.023,0,1.414L31.02,15.414z"></path> <path fill="#111111" d="M39.377,28.907l7.506-4.334l10.528,2.821c0.087,0.023,0.174,0.035,0.26,0.035 c0.441,0,0.846-0.295,0.965-0.742c0.143-0.534-0.174-1.082-0.707-1.225l-8.596-2.303l9.168-5.293 c0.479-0.276,0.643-0.888,0.366-1.366c-0.277-0.479-0.89-0.643-1.366-0.366l-9.168,5.293l2.304-8.596 c0.143-0.533-0.174-1.082-0.707-1.225c-0.533-0.143-1.081,0.173-1.225,0.707l-2.821,10.528l-7.514,4.338 C38.771,27.709,39.115,28.285,39.377,28.907z"></path> <path fill="#111111" d="M33.02,48.586v-8.658C32.685,39.97,32.346,40,32,40c-0.333,0-0.658-0.027-0.98-0.066v8.652l-7.707,7.707 c-0.391,0.391-0.391,1.023,0,1.414s1.023,0.391,1.414,0l6.293-6.293V62c0,0.552,0.447,1,1,1s1-0.448,1-1V51.414l6.293,6.293 C39.508,57.902,39.764,58,40.02,58s0.512-0.098,0.707-0.293c0.391-0.391,0.391-1.023,0-1.414L33.02,48.586z"></path> <path fill="#111111" d="M58.5,46.134l-9.168-5.293l8.596-2.303c0.533-0.143,0.85-0.691,0.707-1.225 c-0.143-0.534-0.689-0.849-1.225-0.707l-10.528,2.821l-7.506-4.334c-0.261,0.621-0.606,1.198-1.008,1.728l7.514,4.338l2.821,10.528 c0.12,0.447,0.523,0.742,0.965,0.742c0.086,0,0.173-0.011,0.26-0.035c0.533-0.143,0.85-0.691,0.707-1.225l-2.304-8.596l9.168,5.293 C57.657,47.957,57.829,48,57.999,48c0.346,0,0.682-0.179,0.867-0.5C59.143,47.021,58.979,46.41,58.5,46.134z"></path> <path fill="#111111" d="M24.63,35.111l-7.475,4.316L6.627,36.606c-0.533-0.142-1.082,0.174-1.225,0.707 c-0.143,0.534,0.174,1.082,0.707,1.225l8.596,2.303l-9.168,5.293C5.06,46.41,4.896,47.021,5.172,47.5 C5.357,47.821,5.693,48,6.039,48c0.17,0,0.342-0.043,0.499-0.134l9.168-5.293l-2.304,8.596c-0.143,0.533,0.174,1.082,0.707,1.225 c0.087,0.023,0.174,0.035,0.26,0.035c0.441,0,0.845-0.295,0.965-0.742l2.821-10.528l7.487-4.323 C25.239,36.307,24.893,35.732,24.63,35.111z"></path> <path d="M32,38c-3.308,0-6-2.692-6-6s2.692-6,6-6s6,2.692,6,6S35.308,38,32,38z"></path></g></svg>