<svg xmlns="http://www.w3.org/2000/svg" width="64" height="64" viewBox="0 0 64 64"><g class="nc-icon-wrapper" stroke-linecap="square" stroke-linejoin="miter" stroke-width="2" fill="#111111" stroke="#111111"><path data-cap="butt" data-color="color-2" fill="none" stroke-miterlimit="10" d="M9.6,12 c5.5,7.3,12.5,10,22.4,10c9.8,0,16.9-2.7,22.4-10" stroke-linecap="butt"/> <path data-cap="butt" data-color="color-2" fill="none" stroke-miterlimit="10" d="M9.6,52 c5.5-7.3,12.5-10,22.4-10c9.8,0,16.9,2.7,22.4,10" stroke-linecap="butt"/> <path data-cap="butt" data-color="color-2" fill="none" stroke-miterlimit="10" d="M32,62c10.6-5.1,16-16.6,16-30 S42.6,7.1,32,2" stroke-linecap="butt"/> <path data-cap="butt" data-color="color-2" fill="none" stroke-miterlimit="10" d="M32,62c-10.6-5.1-16-16.6-16-30 S21.4,7.1,32,2" stroke-linecap="butt"/> <polyline data-cap="butt" data-color="color-2" fill="none" stroke-miterlimit="10" points="32,62 32,59.3 32,4.7 32,2 " stroke-linecap="butt"/> <line data-cap="butt" data-color="color-2" fill="none" stroke-miterlimit="10" x1="2" y1="32" x2="62" y2="32" stroke-linecap="butt"/> <circle fill="none" stroke="#111111" stroke-miterlimit="10" cx="32" cy="32" r="30"/></g></svg>