<?xml version="1.0" encoding="UTF-8" standalone="no"?>
<!DOCTYPE svg PUBLIC "-//W3C//DTD SVG 1.1//EN" "http://www.w3.org/Graphics/SVG/1.1/DTD/svg11.dtd">
<svg width="100%" height="100%" viewBox="0 0 473 237" version="1.1" xmlns="http://www.w3.org/2000/svg" xmlns:xlink="http://www.w3.org/1999/xlink" xml:space="preserve" xmlns:serif="http://www.serif.com/" style="fill-rule:evenodd;clip-rule:evenodd;stroke-linejoin:round;stroke-miterlimit:2;">
    <g transform="matrix(1,0,0,1,-202887,-67099.6)">
        <g transform="matrix(0.357516,0,0,0.444057,139335,35331.6)">
            <g transform="matrix(0.597028,0,0,0.480676,117594,65106)">
                <circle cx="102436" cy="13938.8" r="553.055" style="fill:white;"/>
            </g>
        </g>
        <g transform="matrix(0.357516,0,0,0.444057,139335,35331.6)">
            <g transform="matrix(0.597028,0,0,0.480676,116933,65106)">
                <circle cx="102436" cy="13938.8" r="553.055" style="fill:white;"/>
            </g>
        </g>
        <g transform="matrix(0.357516,0,0,0.444057,139335,35331.6)">
            <g transform="matrix(0.298278,0,0,0.240148,147701,68458.7)">
                <circle cx="102436" cy="13938.8" r="553.055"/>
            </g>
        </g>
        <g transform="matrix(0.357516,0,0,0.444057,139335,35331.6)">
            <g transform="matrix(0.298278,0,0,0.240148,148363,68458.7)">
                <circle cx="102436" cy="13938.8" r="553.055"/>
            </g>
        </g>
        <g transform="matrix(0.357516,0,0,0.444057,139335,35331.6)">
            <g transform="matrix(0.298278,0,0,0.240148,147371,68458.7)">
                <circle cx="102436" cy="13938.8" r="553.055"/>
            </g>
        </g>
        <g transform="matrix(0.357516,0,0,0.444057,139335,35331.6)">
            <g transform="matrix(0.298278,0,0,0.240148,148032,68458.7)">
                <circle cx="102436" cy="13938.8" r="553.055"/>
            </g>
        </g>
        <g transform="matrix(0.357516,0,0,0.444057,139335,35331.6)">
            <g transform="matrix(0.149021,0,0,0.119979,162743,70133.7)">
                <circle cx="102436" cy="13938.8" r="553.055" style="fill:white;"/>
            </g>
        </g>
        <g transform="matrix(0.357516,0,0,0.444057,139335,35331.6)">
            <g transform="matrix(0.149021,0,0,0.119979,163404,70133.7)">
                <circle cx="102436" cy="13938.8" r="553.055" style="fill:white;"/>
            </g>
        </g>
        <g transform="matrix(0.357516,0,0,0.444057,139335,35331.6)">
            <g transform="matrix(0.149021,0,0,0.119979,163073,70133.7)">
                <circle cx="102436" cy="13938.8" r="553.055" style="fill:white;"/>
            </g>
        </g>
        <g transform="matrix(0.357516,0,0,0.444057,139335,35331.6)">
            <g transform="matrix(0.149021,0,0,0.119979,163734,70133.7)">
                <circle cx="102436" cy="13938.8" r="553.055" style="fill:white;"/>
            </g>
        </g>
        <g transform="matrix(0.357516,0,0,0.444057,139335,35331.6)">
            <g transform="matrix(0.149021,0,0,0.119979,162578,70133.7)">
                <circle cx="102436" cy="13938.8" r="553.055" style="fill:white;"/>
            </g>
        </g>
        <g transform="matrix(0.357516,0,0,0.444057,139335,35331.6)">
            <g transform="matrix(0.149021,0,0,0.119979,163239,70133.7)">
                <circle cx="102436" cy="13938.8" r="553.055" style="fill:white;"/>
            </g>
        </g>
        <g transform="matrix(0.357516,0,0,0.444057,139335,35331.6)">
            <g transform="matrix(0.149021,0,0,0.119979,162908,70133.7)">
                <circle cx="102436" cy="13938.8" r="553.055" style="fill:white;"/>
            </g>
        </g>
        <g transform="matrix(0.357516,0,0,0.444057,139335,35331.6)">
            <g transform="matrix(0.149021,0,0,0.119979,163569,70133.7)">
                <circle cx="102436" cy="13938.8" r="553.055" style="fill:white;"/>
            </g>
        </g>
    </g>
</svg>
