<svg xmlns="http://www.w3.org/2000/svg" width="64" height="64" viewBox="0 0 64 64"><title>antenna</title><g fill="#111111"><path d="M45.435,38.435a1,1,0,0,1-.707-1.707,18,18,0,0,0,0-25.457,1,1,0,0,1,1.414-1.414,20,20,0,0,1,0,28.285A1,1,0,0,1,45.435,38.435Z"></path><path d="M18.565,38.435a1,1,0,0,1-.707-.293,20,20,0,0,1,0-28.285,1,1,0,0,1,1.414,1.414,18,18,0,0,0,0,25.457,1,1,0,0,1-.707,1.707Z"></path><path d="M42,59H33V29.91a6,6,0,1,0-2,0V59H22a1,1,0,0,0,0,2H42a1,1,0,0,0,0-2Z" fill="#111111"></path><path d="M50.385,43.385a1,1,0,0,1-.707-1.707,25,25,0,0,0,0-35.356,1,1,0,0,1,1.414-1.414,27,27,0,0,1,0,38.184A1,1,0,0,1,50.385,43.385Z"></path><path d="M13.615,43.385a1,1,0,0,1-.707-.293,27,27,0,0,1,0-38.184,1,1,0,0,1,1.414,1.414,25,25,0,0,0,0,35.356,1,1,0,0,1-.707,1.707Z"></path><path d="M23.515,33.485a.993.993,0,0,1-.707-.293,13,13,0,0,1,0-18.384,1,1,0,0,1,1.414,1.414,11,11,0,0,0,0,15.556,1,1,0,0,1-.707,1.707Z"></path><path d="M40.485,33.485a1,1,0,0,1-.707-1.707,11,11,0,0,0,0-15.556,1,1,0,0,1,1.414-1.414,13,13,0,0,1,0,18.384A.993.993,0,0,1,40.485,33.485Z"></path></g></svg>