<svg xmlns="http://www.w3.org/2000/svg" width="64" height="64" viewBox="0 0 64 64"><g class="nc-icon-wrapper" fill="#111111"><path d="M50,35H14A14.948,14.948,0,0,1,3,30.164V51a6,6,0,0,0,6,6H55a6,6,0,0,0,6-6V30.164A14.948,14.948,0,0,1,50,35Z" fill="#111111"/> <path d="M50,7a12.952,12.952,0,0,0-6.547,1.8,11.826,11.826,0,0,1,.755,8.329A11.041,11.041,0,0,0,41,10.636,12.906,12.906,0,0,0,25.453,8.8a11.826,11.826,0,0,1,.755,8.329A11.041,11.041,0,0,0,23,10.636,12.995,12.995,0,1,0,14,33H50A13,13,0,0,0,50,7Z" data-color="color-2"/></g></svg>