<svg xmlns="http://www.w3.org/2000/svg" width="64" height="64" viewBox="0 0 64 64"><title>file-js</title><g stroke-linecap="square" stroke-linejoin="miter" stroke-width="2" fill="#111111" stroke="#111111"><path data-stroke="none" d="M26.3,49.7c-0.4,0-0.8,0-1.2-0.1V48c0.3,0.1,0.6,0.1,0.9,0.1 c0.4,0,0.7-0.1,0.9-0.4s0.3-0.7,0.3-1.3v-8.7h2v8.7c0,1.1-0.2,1.9-0.7,2.5S27.3,49.7,26.3,49.7z" stroke-linejoin="miter" stroke-linecap="square" stroke="none"></path> <path data-stroke="none" d="M37.3,44.4c0,0.8-0.3,1.5-0.9,2c-0.6,0.5-1.4,0.7-2.5,0.7c-1,0-1.9-0.2-2.6-0.6 v-1.8c0.6,0.3,1.2,0.5,1.6,0.6c0.4,0.1,0.8,0.2,1.2,0.2c0.4,0,0.8-0.1,1-0.2c0.2-0.2,0.3-0.4,0.3-0.7c0-0.2-0.1-0.3-0.2-0.5 s-0.3-0.3-0.4-0.4c-0.2-0.1-0.6-0.3-1.2-0.6c-0.6-0.3-1-0.5-1.3-0.8s-0.5-0.5-0.7-0.9c-0.2-0.3-0.3-0.7-0.3-1.1 c0-0.8,0.3-1.5,0.8-1.9c0.6-0.5,1.3-0.7,2.3-0.7c0.5,0,0.9,0.1,1.4,0.2c0.4,0.1,0.9,0.3,1.4,0.5l-0.6,1.5c-0.5-0.2-0.9-0.3-1.2-0.4 c-0.3-0.1-0.6-0.1-1-0.1c-0.4,0-0.7,0.1-0.9,0.3s-0.3,0.4-0.3,0.7c0,0.2,0,0.3,0.1,0.5s0.2,0.3,0.4,0.4c0.2,0.1,0.6,0.3,1.2,0.7 c0.9,0.4,1.5,0.8,1.8,1.2S37.3,43.8,37.3,44.4z" stroke-linejoin="miter" stroke-linecap="square" stroke="none"></path> <polyline fill="none" stroke="#111111" stroke-miterlimit="10" points="40,2 40,18 56,18 " stroke-linecap="butt"></polyline> <polyline fill="none" stroke="#111111" stroke-miterlimit="10" points="56,32 56,18 40,2 8,2 8,32 "></polyline> <polyline fill="none" stroke="#111111" stroke-miterlimit="10" points="8,53 8,62 56,62 56,53 "></polyline> <line fill="none" stroke="#111111" stroke-miterlimit="10" x1="61" y1="32" x2="3" y2="32" stroke-linecap="butt"></line> <polyline fill="none" stroke="#111111" stroke-miterlimit="10" points="8,27 3,32 3,53 61,53 61,32 56,27 " stroke-linecap="butt"></polyline></g></svg>