<svg xmlns="http://www.w3.org/2000/svg" width="64" height="64" viewBox="0 0 64 64"><title>contentdelivery</title><g fill="#111111"><path d="M52,63a5,5,0,1,1,5-5A5.006,5.006,0,0,1,52,63Z" fill="#111111"></path><path d="M12.6,26.738l8.476-14.384A6.981,6.981,0,0,1,19.4,11.266L10.922,25.648A6.939,6.939,0,0,0,8,25a7.025,7.025,0,1,0,4.6,1.738Z"></path><path d="M48.184,15.55,28.9,6.965a5,5,0,1,0-.771,1.845l19.258,8.575A8.876,8.876,0,0,1,48.184,15.55Z" fill="#111111"></path><path d="M50.312,26.972a9.055,9.055,0,0,1-1.4-1.433L30.271,44.466A7.034,7.034,0,1,0,31.663,45.9Z"></path><path d="M63,20a7,7,0,0,0-14,0c0,.218.013.433.033.646L16.446,28.915a8.968,8.968,0,0,1,.474,1.944L49.5,22.591a7.022,7.022,0,0,0,4.615,4.137L51.9,51.005c.034,0,.068-.005.1-.005a6.968,6.968,0,0,1,1.883.264L56.1,27A7.006,7.006,0,0,0,63,20Z" fill="#111111"></path></g></svg>