<svg xmlns="http://www.w3.org/2000/svg" width="64" height="64" viewBox="0 0 64 64"><title>cryptography</title><g fill="#111111"><path d="M5,35a1,1,0,0,1-1-1V21a1,1,0,0,1,.293-.707l16-16A1,1,0,0,1,21,4h8a1,1,0,0,1,0,2H21.414L6,21.414V34A1,1,0,0,1,5,35Z" fill="#111111"></path><path d="M45.707,56.293,33,43.586V36.9a5,5,0,1,0-2,0V44a1,1,0,0,0,.293.707l13,13a1,1,0,0,0,1.414-1.414Z" fill="#111111"></path><path d="M25,9a4.992,4.992,0,0,0-4.167,7.753l-9.54,9.54A1,1,0,0,0,11,27V40H5a1,1,0,0,0,0,2h7a1,1,0,0,0,1-1V27.414l9.247-9.247A5,5,0,1,0,25,9Z" fill="#111111"></path><path d="M59,29a1,1,0,0,0-1,1V42.586l-3.247,3.247a5.015,5.015,0,1,0,1.414,1.414l3.54-3.54A1,1,0,0,0,60,43V30A1,1,0,0,0,59,29Z" fill="#111111"></path><path d="M52,40a1,1,0,0,1-1-1V23a1,1,0,0,1,1-1h7a1,1,0,0,1,0,2H53V39A1,1,0,0,1,52,40Z" fill="#111111"></path><path d="M51,8a4.964,4.964,0,0,0-2.753.833l-4.54-4.54A1,1,0,0,0,43,4H35a1,1,0,0,0-1,1v8a1,1,0,0,0,.293.707L44,23.414V36.586l-4.707,4.707a1,1,0,1,0,1.414,1.414l5-5A1,1,0,0,0,46,37V23a1,1,0,0,0-.293-.707L36,12.586V6h6.586l4.247,4.247A5,5,0,1,0,51,8Z"></path><path d="M37.707,58.293,20,40.586V31.414L27.414,24H35a1,1,0,0,0,0-2H27a1,1,0,0,0-.707.293l-8,8A1,1,0,0,0,18,31V41a1,1,0,0,0,.293.707L34.586,58H21.413L17.16,53.767a5.033,5.033,0,1,0-1.421,1.408L20.3,59.709A1,1,0,0,0,21,60H37a1,1,0,0,0,.707-1.707Z"></path></g></svg>