<svg xmlns="http://www.w3.org/2000/svg" width="64" height="64" viewBox="0 0 64 64"><g class="nc-icon-wrapper" fill="#111111"><path d="M54.731,3.318A1,1,0,0,0,54,3H10A1,1,0,0,0,9,4.071L12.6,54.5A7.025,7.025,0,0,0,19.587,61H44.413A7.025,7.025,0,0,0,51.4,54.5L55,4.071A.993.993,0,0,0,54.731,3.318ZM49.4,54.356A5.019,5.019,0,0,1,44.413,59H19.587A5.019,5.019,0,0,1,14.6,54.356L11.074,5H52.926Z" fill="#111111"/> <path d="M19.587,57H44.413a3.01,3.01,0,0,0,2.992-2.786l1.582-22.143a1,1,0,0,0-1-1.071H16.01a1,1,0,0,0-1,1.071L16.6,54.214A3.01,3.01,0,0,0,19.587,57Z" data-color="color-2"/></g></svg>