<svg xmlns="http://www.w3.org/2000/svg" width="64" height="64" viewBox="0 0 64 64"><title>graineffect</title><g fill="#111111"><rect x="20" y="4" width="8" height="8"></rect><rect x="28" y="52" width="8" height="8"></rect><rect x="28" y="12" width="8" height="8"></rect><rect x="36" y="4" width="8" height="8"></rect><polygon points="36 20 36 28 28 28 28 36 20 36 20 28 28 28 28 20 20 20 20 12 12 12 12 4 4 4 4 20 12 20 12 28 4 28 4 44 12 44 12 52 4 52 4 60 20 60 20 52 28 52 28 44 36 44 36 36 44 36 44 20 36 20" fill="#111111"></polygon><rect x="44" y="12" width="8" height="8"></rect><rect x="52" y="52" width="8" height="8"></rect><polygon points="44 36 44 44 36 44 36 52 52 52 52 36 44 36" fill="#111111"></polygon><rect x="52" y="28" width="8" height="8"></rect><rect x="52" y="4" width="8" height="8"></rect></g></svg>