<svg xmlns="http://www.w3.org/2000/svg" width="64" height="64" viewBox="0 0 64 64"><g class="nc-icon-wrapper" stroke-linecap="square" stroke-linejoin="miter" stroke-width="2" fill="#111111" stroke="#111111"><line fill="none" stroke="#111111" stroke-miterlimit="10" x1="24" y1="12" x2="62" y2="12"/> <line fill="none" stroke="#111111" stroke-miterlimit="10" x1="24" y1="32" x2="47" y2="32"/> <line fill="none" stroke="#111111" stroke-miterlimit="10" x1="24" y1="52" x2="62" y2="52"/> <polyline data-color="color-2" fill="none" stroke-miterlimit="10" points=" 4,6 8,6 8,18 "/> <line data-color="color-2" fill="none" stroke-miterlimit="10" x1="4" y1="18" x2="12" y2="18"/> <path data-color="color-2" fill="none" stroke-miterlimit="10" d="M13,38H4v-1 l7.2-5.4c0.504-0.378,0.8-0.97,0.8-1.6v-2c0-1.105-0.895-2-2-2H6c-1.105,0-2,0.895-2,2v1"/> <path data-color="color-2" fill="none" stroke-miterlimit="10" d="M8,52h2 c1.105,0,2-0.895,2-2v-2c0-1.105-0.895-2-2-2H6c-1.105,0-2,0.895-2,2l0,0"/> <path data-color="color-2" fill="none" stroke-miterlimit="10" d="M8,52h2 c1.105,0,2,0.895,2,2v2c0,1.105-0.895,2-2,2H6c-1.105,0-2-0.895-2-2l0,0"/></g></svg>