<svg xmlns="http://www.w3.org/2000/svg" width="64" height="64" viewBox="0 0 64 64"><title>machinelearning</title><g stroke-linecap="square" stroke-linejoin="miter" stroke-width="2" fill="#111111" stroke="#111111"><line x1="32" y1="29" x2="32" y2="13" fill="none" stroke-miterlimit="10" stroke-linecap="butt"></line><line x1="11.054" y1="23.081" x2="27.946" y2="10.919" fill="none" stroke-miterlimit="10" stroke-linecap="butt"></line><line x1="14.563" y1="51.211" x2="8.437" y2="30.789" fill="none" stroke-miterlimit="10" stroke-linecap="butt"></line><line x1="43" y1="56" x2="21" y2="56" fill="none" stroke-miterlimit="10" stroke-linecap="butt"></line><line x1="36.054" y1="10.919" x2="53" y2="23.12" fill="none" stroke-miterlimit="10" stroke-linecap="butt"></line><line x1="36.762" y1="32.476" x2="52.237" y2="27.524" fill="none" stroke-miterlimit="10" stroke-linecap="butt"></line><line x1="11.763" y1="27.524" x2="27.238" y2="32.476" fill="none" stroke-miterlimit="10" stroke-linecap="butt"></line><line x1="18.938" y1="51.96" x2="29.06" y2="38.042" fill="none" stroke-miterlimit="10" stroke-linecap="butt"></line><line x1="45.061" y1="51.959" x2="34.94" y2="38.042" fill="none" stroke-miterlimit="10" stroke-linecap="butt"></line><circle cx="32" cy="34" r="5" fill="none" stroke="#111111" stroke-miterlimit="10"></circle><line x1="55.563" y1="30.789" x2="49.437" y2="51.211" fill="none" stroke-miterlimit="10" stroke-linecap="butt"></line><circle cx="32" cy="8" r="5" fill="none" stroke="#111111" stroke-miterlimit="10"></circle><circle cx="57" cy="26" r="5" fill="none" stroke="#111111" stroke-miterlimit="10"></circle><circle cx="48" cy="56" r="5" fill="none" stroke="#111111" stroke-miterlimit="10"></circle><circle cx="16" cy="56" r="5" fill="none" stroke="#111111" stroke-miterlimit="10"></circle><circle cx="7" cy="26" r="5" fill="none" stroke="#111111" stroke-miterlimit="10"></circle></g></svg>