<svg xmlns="http://www.w3.org/2000/svg" width="64" height="64" viewBox="0 0 64 64"><g class="nc-icon-wrapper" fill="#111111"><path fill="#111111" d="M11.4,30L4.6,18c-0.4-0.6-0.4-1.4,0-2l6.9-12c0.4-0.6,1-1,1.7-1h13.7c0.7,0,1.4,0.4,1.7,1l6.9,12 c0.4,0.6,0.4,1.4,0,2l-7,12c-0.4,0.6-1,1-1.7,1H13.2C12.4,31,11.8,30.6,11.4,30z"/> <path fill="#111111" d="M11.4,60L4.6,48c-0.4-0.6-0.4-1.4,0-2l6.9-12c0.4-0.6,1-1,1.7-1h13.7c0.7,0,1.4,0.4,1.7,1l6.9,12 c0.4,0.6,0.4,1.4,0,2l-7,12c-0.4,0.6-1,1-1.7,1H13.2C12.4,61,11.8,60.6,11.4,60z"/> <path data-color="color-2" d="M37.4,45l-6.9-12c-0.4-0.6-0.4-1.4,0-2l6.9-12c0.4-0.6,1-1,1.7-1h13.7c0.7,0,1.4,0.4,1.7,1 l6.9,12c0.4,0.6,0.4,1.4,0,2l-7,12c-0.4,0.6-1,1-1.7,1H39.2C38.4,46,37.8,45.6,37.4,45z"/></g></svg>