<svg xmlns="http://www.w3.org/2000/svg" width="64" height="64" viewBox="0 0 64 64"><title>nodes</title><g stroke-linecap="square" stroke-linejoin="miter" stroke-width="2" fill="#111111" stroke="#111111"><circle cx="32.001" cy="32" r="5" fill="none" stroke-miterlimit="10" stroke-linecap="butt"></circle><circle cx="32.001" cy="7" r="5" fill="none" stroke="#111111" stroke-miterlimit="10" stroke-linecap="butt"></circle><circle cx="10" cy="19" r="5" fill="none" stroke="#111111" stroke-miterlimit="10"></circle><circle cx="54" cy="19" r="5" fill="none" stroke="#111111" stroke-miterlimit="10"></circle><circle cx="10" cy="45" r="5" fill="none" stroke="#111111" stroke-miterlimit="10" stroke-linecap="butt"></circle><circle cx="54" cy="45" r="5" fill="none" stroke="#111111" stroke-miterlimit="10" stroke-linecap="butt"></circle><circle cx="31.999" cy="57" r="5" fill="none" stroke="#111111" stroke-miterlimit="10"></circle><line x1="32" y1="12" x2="32" y2="22" fill="none" stroke="#111111" stroke-miterlimit="10"></line><line x1="32" y1="42" x2="32" y2="52" fill="none" stroke="#111111" stroke-miterlimit="10"></line><line x1="18.776" y1="14.213" x2="27.614" y2="9.393" fill="none" stroke="#111111" stroke-miterlimit="10"></line><line x1="23.223" y1="52.213" x2="14.39" y2="47.395" fill="none" stroke="#111111" stroke-miterlimit="10"></line><line x1="10" y1="35" x2="10" y2="24" fill="none" stroke="#111111" stroke-miterlimit="10"></line><line x1="54" y1="29" x2="54" y2="40" fill="none" stroke="#111111" stroke-miterlimit="10"></line><line x1="49.61" y1="16.605" x2="40.777" y2="11.788" fill="none" stroke="#111111" stroke-miterlimit="10"></line><line x1="23.403" y1="26.92" x2="14.302" y2="21.542" fill="none" stroke="#111111" stroke-miterlimit="10"></line><line x1="23.403" y1="37.08" x2="14.302" y2="42.458" fill="none" stroke="#111111" stroke-miterlimit="10"></line><line x1="40.599" y1="26.919" x2="49.698" y2="21.542" fill="none" stroke="#111111" stroke-miterlimit="10"></line><line x1="49.698" y1="42.458" x2="40.599" y2="37.081" fill="none" stroke="#111111" stroke-miterlimit="10"></line><line x1="45.224" y1="49.787" x2="36.389" y2="54.605" fill="none" stroke="#111111" stroke-miterlimit="10"></line></g></svg>