<svg xmlns="http://www.w3.org/2000/svg" width="64" height="64" viewBox="0 0 64 64"><g class="nc-icon-wrapper" stroke-linecap="square" stroke-linejoin="miter" stroke-width="2" fill="#111111" stroke="#111111"><path d="M18,32C18,18,32,3,32,3S46,18,46,32c0,10-6.268,18-14,18S18,42,18,32Z" fill="none" stroke="#111111" stroke-miterlimit="10"/> <line x1="32" y1="62" x2="32" y2="23" fill="none" stroke="#111111" stroke-miterlimit="10"/> <path d="M49,17.155a54.9,54.9,0,0,1,7.2-3.876s6.857,16.265,2.153,27.826C55.379,48.411,48.88,52.776,43,51.885" fill="none" stroke-miterlimit="10" data-color="color-2"/> <path d="M15,17.155a54.9,54.9,0,0,0-7.2-3.876S.945,29.544,5.649,41.105C8.621,48.411,15.12,52.776,21,51.885" fill="none" stroke-miterlimit="10" data-color="color-2"/> <line x1="32" y1="41" x2="39" y2="35" fill="none" stroke="#111111" stroke-miterlimit="10" data-cap="butt" stroke-linecap="butt"/> <line x1="32" y1="35" x2="25" y2="29" fill="none" stroke="#111111" stroke-miterlimit="10" data-cap="butt" stroke-linecap="butt"/></g></svg>