<svg xmlns="http://www.w3.org/2000/svg" width="64" height="64" viewBox="0 0 64 64"><g class="nc-icon-wrapper" stroke-linecap="square" stroke-linejoin="miter" stroke-width="2" fill="#111111" stroke="#111111"><polyline fill="none" stroke="#111111" stroke-miterlimit="10" points="2,55 2,62 9,62 "/> <polyline fill="none" stroke="#111111" stroke-miterlimit="10" points="9,22 2,22 2,29 "/> <line fill="none" stroke="#111111" stroke-miterlimit="10" x1="2" y1="46" x2="2" y2="38"/> <line fill="none" stroke="#111111" stroke-miterlimit="10" x1="18" y1="22" x2="22" y2="22"/> <line fill="none" stroke="#111111" stroke-miterlimit="10" x1="18" y1="62" x2="26" y2="62"/> <polyline fill="none" stroke="#111111" stroke-miterlimit="10" points="42,55 42,62 35,62 "/> <line fill="none" stroke="#111111" stroke-miterlimit="10" x1="42" y1="46" x2="42" y2="42"/> <polyline fill="none" stroke="#111111" stroke-miterlimit="10" points="55,2 62,2 62,9 "/> <polyline fill="none" stroke="#111111" stroke-miterlimit="10" points="22,9 22,2 29,2 "/> <line fill="none" stroke="#111111" stroke-miterlimit="10" x1="46" y1="2" x2="38" y2="2"/> <line fill="none" stroke="#111111" stroke-miterlimit="10" x1="22" y1="18" x2="22" y2="22"/> <line fill="none" stroke="#111111" stroke-miterlimit="10" x1="62" y1="18" x2="62" y2="26"/> <polyline fill="none" stroke="#111111" stroke-miterlimit="10" points="55,42 62,42 62,35 "/> <line fill="none" stroke="#111111" stroke-miterlimit="10" x1="46" y1="42" x2="42" y2="42"/> <rect data-color="color-2" x="22" y="22" fill="none" stroke-miterlimit="10" width="20" height="20"/></g></svg>