<svg xmlns="http://www.w3.org/2000/svg" width="64" height="64" viewBox="0 0 64 64"><g class="nc-icon-wrapper" stroke-linecap="square" stroke-linejoin="miter" stroke-width="2" fill="#111111" stroke="#111111"><path data-color="color-2" data-stroke="none" d="M39.871,26h-3.503c-0.239,0-0.443,0.174-0.481,0.411l-1.416,8.982 c-0.028,0.177,0.109,0.337,0.288,0.337h1.797c0.168,0,0.31-0.122,0.337-0.288l0.402-2.546c0.037-0.237,0.241-0.411,0.481-0.411 h1.108c2.307,0,3.639-1.117,3.987-3.33c0.157-0.968,0.006-1.728-0.447-2.261C41.926,26.309,41.043,26,39.871,26z M40.275,29.28 c-0.191,1.257-1.152,1.257-2.081,1.257h-0.528l0.371-2.348c0.022-0.142,0.145-0.246,0.288-0.246c0.769,0,1.445-0.032,1.78,0.36 C40.289,28.52,40.345,28.839,40.275,29.28z" stroke-linejoin="miter" stroke-linecap="square" stroke="none"/> <path data-color="color-2" data-stroke="none" d="M14.887,26h-3.503c-0.239,0-0.443,0.174-0.481,0.411l-1.416,8.982 C9.459,35.57,9.596,35.73,9.776,35.73h1.672c0.24,0,0.443-0.174,0.481-0.411l0.382-2.423c0.037-0.237,0.241-0.411,0.481-0.411H13.9 c2.307,0,3.639-1.117,3.987-3.33c0.157-0.968,0.006-1.728-0.447-2.261C16.942,26.309,16.059,26,14.887,26z M15.292,29.28 c-0.191,1.257-1.152,1.257-2.081,1.257h-0.528l0.371-2.348c0.022-0.142,0.145-0.246,0.288-0.246h0.242c0.632,0,1.229,0,1.537,0.36 C15.306,28.52,15.361,28.839,15.292,29.28z" stroke-linejoin="miter" stroke-linecap="square" stroke="none"/> <path data-color="color-2" data-stroke="none" d="M25.357,29.24H23.68c-0.144,0-0.266,0.105-0.288,0.247l-0.074,0.469 c-0.163-0.236-0.486-0.873-2.098-0.873c-1.853,0-3.436,1.404-3.744,3.374c-0.16,0.983,0.067,1.922,0.624,2.577 c0.512,0.602,1.242,0.853,2.113,0.853c1.494,0,2.322-0.96,2.322-0.96l-0.075,0.466c-0.028,0.177,0.109,0.338,0.288,0.338h1.511 c0.239,0,0.443-0.174,0.481-0.411l0.907-5.742C25.674,29.4,25.537,29.24,25.357,29.24z M23.019,32.505 c-0.162,0.958-0.923,1.602-1.893,1.602c-0.487,0-0.876-0.157-1.126-0.453c-0.248-0.294-0.342-0.712-0.263-1.178 c0.151-0.95,0.924-1.614,1.88-1.614c0.476,0,0.863,0.158,1.118,0.457C22.992,31.62,23.093,32.041,23.019,32.505z" stroke-linejoin="miter" stroke-linecap="square" stroke="none"/> <path data-color="color-2" data-stroke="none" d="M50.341,29.24h-1.677c-0.144,0-0.266,0.105-0.288,0.247l-0.074,0.469 c-0.163-0.236-0.487-0.873-2.098-0.873c-1.853,0-3.436,1.404-3.744,3.374c-0.16,0.983,0.067,1.922,0.624,2.577 c0.512,0.602,1.242,0.853,2.113,0.853c1.494,0,2.322-0.96,2.322-0.96l-0.075,0.466c-0.028,0.177,0.109,0.338,0.288,0.338h1.511 c0.239,0,0.443-0.174,0.481-0.411l0.907-5.742C50.657,29.4,50.52,29.24,50.341,29.24z M48.003,32.505 c-0.162,0.958-0.923,1.602-1.893,1.602c-0.487,0-0.876-0.157-1.126-0.453c-0.248-0.294-0.342-0.712-0.263-1.178 c0.151-0.95,0.924-1.614,1.88-1.614c0.476,0,0.863,0.158,1.118,0.457C47.976,31.62,48.077,32.041,48.003,32.505z" stroke-linejoin="miter" stroke-linecap="square" stroke="none"/> <path data-color="color-2" data-stroke="none" d="M34.291,29.24h-1.686c-0.161,0-0.312,0.08-0.403,0.213l-2.326,3.425l-0.986-3.291 c-0.062-0.206-0.251-0.347-0.466-0.347h-1.657c-0.2,0-0.341,0.197-0.276,0.386l1.856,5.449l-1.746,2.464 C26.464,37.733,26.602,38,26.839,38h1.684c0.16,0,0.309-0.078,0.4-0.209l5.607-8.092C34.665,29.505,34.526,29.24,34.291,29.24z" stroke-linejoin="miter" stroke-linecap="square" stroke="none"/> <path data-color="color-2" data-stroke="none" d="M52.318,26.247l-1.438,9.146c-0.028,0.177,0.109,0.337,0.288,0.337h1.446 c0.24,0,0.443-0.174,0.481-0.411l1.418-8.982C54.541,26.16,54.404,26,54.224,26h-1.618C52.462,26,52.34,26.105,52.318,26.247z" stroke-linejoin="miter" stroke-linecap="square" stroke="none"/> <path fill="none" stroke="#111111" stroke-miterlimit="10" d="M2,50V14c0-2.2,1.8-4,4-4 h52c2.2,0,4,1.8,4,4v36c0,2.2-1.8,4-4,4H6C3.8,54,2,52.2,2,50z"/></g></svg>