<svg xmlns="http://www.w3.org/2000/svg" width="64" height="64" viewBox="0 0 64 64"><title>sperm</title><g stroke-linecap="square" stroke-linejoin="miter" stroke-width="2" fill="#111111" stroke="#111111"><path d="M59.074,4.926c-2.875-2.875-7.926-2.487-11.28.868s-3.743,8.405-.868,11.28,7.926,2.487,11.28-.868S61.949,7.8,59.074,4.926Z" fill="none" stroke-miterlimit="10" stroke-linecap="butt"></path><path d="M33.315,4.685c-2.516-2.516-6.935-2.176-9.87.759s-3.276,7.355-.76,9.871,6.935,2.176,9.87-.759S35.831,7.2,33.315,4.685Z" fill="none" stroke="#111111" stroke-miterlimit="10" stroke-linecap="butt"></path><path d="M59.315,30.685c-2.516-2.516-6.935-2.176-9.87.759s-3.276,7.355-.76,9.871,6.935,2.176,9.87-.759S61.831,33.2,59.315,30.685Z" fill="none" stroke="#111111" stroke-miterlimit="10" stroke-linecap="butt"></path><path d="M48.685,41.315l-3.108,4.2A8.594,8.594,0,0,1,38.667,49h0a8.594,8.594,0,0,0-7.9,5.209L27.857,61" fill="none" stroke="#111111" stroke-miterlimit="10" stroke-linecap="butt"></path><path d="M22.685,15.315l-4.2,3.108A8.6,8.6,0,0,0,15,25.333h0a8.594,8.594,0,0,1-5.209,7.9L3,36.143" fill="none" stroke="#111111" stroke-miterlimit="10" stroke-linecap="butt"></path><path d="M46.926,17.074l-3.9,5.867A8.842,8.842,0,0,1,37.4,26.72l-3.827.766a8.839,8.839,0,0,0-7.09,9.22h0a8.842,8.842,0,0,1-7.728,9.325l-3.484.435A8.843,8.843,0,0,0,8.786,50.69L3,60.333" fill="none" stroke-miterlimit="10" stroke-linecap="butt"></path></g></svg>