<?xml version="1.0" encoding="UTF-8" standalone="no"?>
<!DOCTYPE svg PUBLIC "-//W3C//DTD SVG 1.1//EN" "http://www.w3.org/Graphics/SVG/1.1/DTD/svg11.dtd">
<svg width="100%" height="100%" viewBox="0 0 4221 3946" version="1.1" xmlns="http://www.w3.org/2000/svg" xmlns:xlink="http://www.w3.org/1999/xlink" xml:space="preserve" xmlns:serif="http://www.serif.com/" style="fill-rule:evenodd;clip-rule:evenodd;stroke-linejoin:round;stroke-miterlimit:1.5;">
    <g transform="matrix(1,0,0,1,-59.6665,-56.0826)">
        <g transform="matrix(1,0,0,1,-144317,-18800.9)">
            <g transform="matrix(38.8227,0,0,31.5626,-2.09366e+06,138.862)">
                <g transform="matrix(0.0920973,-7.1324e-33,-6.75529e-33,0.113282,57699.3,658.179)">
                    <text x="0px" y="0px" style="font-family:'Montserrat-Bold', 'Montserrat';font-weight:700;font-size:128.779px;fill:rgb(8,6,5);">1</text>
                </g>
                <g transform="matrix(0.0920973,-7.1324e-33,-6.75529e-33,0.113282,57647.1,658.033)">
                    <text x="0px" y="0px" style="font-family:'Montserrat-Bold', 'Montserrat';font-weight:700;font-size:128.779px;fill:rgb(8,6,5);">0</text>
                </g>
                <g transform="matrix(0.0920973,-7.1324e-33,-6.75529e-33,0.113282,57748.2,659.193)">
                    <text x="0px" y="0px" style="font-family:'Montserrat-Bold', 'Montserrat';font-weight:700;font-size:128.779px;fill:rgb(8,6,5);">4</text>
                </g>
                <g transform="matrix(0.0920973,-7.1324e-33,-6.75529e-33,0.113282,57723.9,629.424)">
                    <text x="0px" y="0px" style="font-family:'Montserrat-Bold', 'Montserrat';font-weight:700;font-size:128.779px;fill:rgb(8,6,5);">3</text>
                </g>
                <g transform="matrix(0.0920973,-7.1324e-33,-6.75529e-33,0.113282,57724.8,691.373)">
                    <text x="0px" y="0px" style="font-family:'Montserrat-Bold', 'Montserrat';font-weight:700;font-size:128.779px;fill:rgb(8,6,5);">2</text>
                </g>
                <g transform="matrix(0.0915837,0,0,0.11265,48320.3,-914.665)">
                    <circle cx="102436" cy="13938.8" r="553.055" style="fill:none;stroke:black;stroke-width:3.44px;"/>
                </g>
                <g transform="matrix(0.0457678,0,0,0.0562955,53038.9,-129.149)">
                    <circle cx="102436" cy="13938.8" r="553.055" style="fill:none;stroke:black;stroke-width:6.87px;"/>
                </g>
                <g transform="matrix(0.0457678,0,0,0.0562955,52988.5,-131.048)">
                    <circle cx="102436" cy="13938.8" r="553.055" style="fill:none;stroke:black;stroke-width:6.87px;"/>
                </g>
            </g>
        </g>
    </g>
</svg>
