<?xml version="1.0" encoding="UTF-8" standalone="no"?>
<!DOCTYPE svg PUBLIC "-//W3C//DTD SVG 1.1//EN" "http://www.w3.org/Graphics/SVG/1.1/DTD/svg11.dtd">
<svg width="100%" height="100%" viewBox="0 0 169 85" version="1.1" xmlns="http://www.w3.org/2000/svg" xmlns:xlink="http://www.w3.org/1999/xlink" xml:space="preserve" xmlns:serif="http://www.serif.com/" style="fill-rule:evenodd;clip-rule:evenodd;stroke-linejoin:bevel;stroke-miterlimit:2;">
    <g transform="matrix(1,0,0,1,-863.316,-996.651)">
        <g transform="matrix(0.0191089,0,0,0.0191089,637.24,979.8)">
            <circle cx="15135.5" cy="3089.34" r="1097.64" style="fill:none;stroke:rgb(47,47,47);stroke-width:52.33px;"/>
        </g>
        <g transform="matrix(0.0191089,0,0,0.0191089,721.17,979.8)">
            <circle cx="15135.5" cy="3089.34" r="1097.64" style="fill:none;stroke:rgb(47,47,47);stroke-width:52.33px;"/>
        </g>
        <g transform="matrix(0.0191089,0,0,0.0191089,595.29,979.8)">
            <circle cx="15135.5" cy="3089.34" r="1097.64" style="fill:none;stroke:rgb(47,47,47);stroke-width:52.33px;"/>
        </g>
        <g transform="matrix(0.0191089,0,0,0.0191089,679.28,979.8)">
            <circle cx="15135.5" cy="3089.34" r="1097.64" style="fill:none;stroke:rgb(47,47,47);stroke-width:52.33px;"/>
        </g>
        <g transform="matrix(0.00955317,0,0,0.00955318,750.41,1009.32)">
            <circle cx="15135.5" cy="3089.34" r="1097.64" style="fill:none;stroke:rgb(47,47,47);stroke-width:104.68px;"/>
        </g>
        <g transform="matrix(0.00955317,0,0,0.00955318,792.36,1009.32)">
            <circle cx="15135.5" cy="3089.34" r="1097.64" style="fill:none;stroke:rgb(47,47,47);stroke-width:104.68px;"/>
        </g>
        <g transform="matrix(0.00955317,0,0,0.00955318,729.43,1009.32)">
            <circle cx="15135.5" cy="3089.34" r="1097.64" style="fill:none;stroke:rgb(47,47,47);stroke-width:104.68px;"/>
        </g>
        <g transform="matrix(0.00955317,0,0,0.00955318,771.42,1009.32)">
            <circle cx="15135.5" cy="3089.34" r="1097.64" style="fill:none;stroke:rgb(47,47,47);stroke-width:104.68px;"/>
        </g>
        <g transform="matrix(0.00955317,0,0,0.00955318,834.4,1009.32)">
            <circle cx="15135.5" cy="3089.34" r="1097.64" style="fill:none;stroke:rgb(47,47,47);stroke-width:104.68px;"/>
        </g>
        <g transform="matrix(0.00955317,0,0,0.00955318,876.26,1009.32)">
            <circle cx="15135.5" cy="3089.34" r="1097.64" style="fill:none;stroke:rgb(47,47,47);stroke-width:104.68px;"/>
        </g>
        <g transform="matrix(0.00955317,0,0,0.00955318,813.33,1009.32)">
            <circle cx="15135.5" cy="3089.34" r="1097.64" style="fill:none;stroke:rgb(47,47,47);stroke-width:104.68px;"/>
        </g>
        <g transform="matrix(0.00955317,0,0,0.00955318,855.31,1009.32)">
            <circle cx="15135.5" cy="3089.34" r="1097.64" style="fill:none;stroke:rgb(47,47,47);stroke-width:104.68px;"/>
        </g>
        <g transform="matrix(0.0382184,0,0,0.0382184,410.94,920.76)">
            <circle cx="15135.5" cy="3089.34" r="1097.64" style="fill:none;stroke:rgb(47,47,47);stroke-width:26.17px;"/>
        </g>
        <g transform="matrix(0.0382184,0,0,0.0382184,327.04,920.76)">
            <circle cx="15135.5" cy="3089.34" r="1097.64" style="fill:none;stroke:rgb(47,47,47);stroke-width:26.17px;"/>
        </g>
    </g>
</svg>
