<?xml version="1.0" encoding="UTF-8" standalone="no"?>
<!DOCTYPE svg PUBLIC "-//W3C//DTD SVG 1.1//EN" "http://www.w3.org/Graphics/SVG/1.1/DTD/svg11.dtd">
<svg viewBox="0 0 6886 4363" version="1.1" xmlns="http://www.w3.org/2000/svg" xmlns:xlink="http://www.w3.org/1999/xlink" xml:space="preserve" xmlns:serif="http://www.serif.com/" style="fill-rule:evenodd;clip-rule:evenodd;stroke-linejoin:round;stroke-miterlimit:1.5;">
    <g id="Mesa-de-trabajo1" serif:id="Mesa de trabajo1" transform="matrix(0.97117,0,0,0.527345,163.304,78.2892)">
        <rect x="-168.152" y="-148.459" width="7089.77" height="8272.71" style="fill:none;"/>
        <g transform="matrix(0.396513,0,0,0.906986,-70348.5,-50072.5)">
            <g>
                <g transform="matrix(0.717293,0,0,0.717293,51870.3,15238.3)">
                    <g transform="matrix(10.5251,0,0,8.47395,-891269,-56264.5)">
                        <circle cx="102436" cy="13938.8" r="553.055" style="fill:none;stroke:#414141;stroke-width:2.32px;"/>
                    </g>
                    <g transform="matrix(5.25981,0,0,4.23475,-348995,2824.72)">
                        <circle cx="102436" cy="13938.8" r="553.055" style="fill:none;stroke:#414141;stroke-width:4.63px;"/>
                    </g>
                    <g transform="matrix(5.25981,0,0,4.23475,-354787,2681.89)">
                        <circle cx="102436" cy="13938.8" r="553.055" style="fill:none;stroke:#414141;stroke-width:4.63px;"/>
                    </g>
                </g>
                <g transform="matrix(7.59195,-3.84845e-31,-5.56865e-31,6.11239,185717,59765.3)">
                    <text x="0px" y="0px" style="font-family:'Montserrat-Bold', 'Montserrat';font-weight:700;font-size:128.779px;fill:#414141;stroke:#414141;stroke-width:0.37px;stroke-miterlimit:1.41421;">1</text>
                </g>
                <g transform="matrix(7.59195,-3.84845e-31,-5.56865e-31,6.11239,181415,59765.3)">
                    <text x="0px" y="0px" style="font-family:'Montserrat-Bold', 'Montserrat';font-weight:700;font-size:128.779px;fill:#414141;stroke:#414141;stroke-width:0.37px;stroke-miterlimit:1.41421;">0</text>
                </g>
                <g transform="matrix(7.59195,-3.84845e-31,-5.56865e-31,6.11239,189750,59765.3)">
                    <text x="0px" y="0px" style="font-family:'Montserrat-Bold', 'Montserrat';font-weight:700;font-size:128.779px;fill:#414141;stroke:#414141;stroke-width:0.37px;stroke-miterlimit:1.41421;">4</text>
                </g>
                <g transform="matrix(7.59195,-3.84845e-31,-5.56865e-31,6.11239,187786,58195)">
                    <text x="0px" y="0px" style="font-family:'Montserrat-Bold', 'Montserrat';font-weight:700;font-size:128.779px;fill:#414141;stroke:#414141;stroke-width:0.37px;stroke-miterlimit:1.41421;">3</text>
                </g>
                <g transform="matrix(7.59195,-3.84845e-31,-5.56865e-31,6.11239,187783,61537.6)">
                    <text x="0px" y="0px" style="font-family:'Montserrat-Bold', 'Montserrat';font-weight:700;font-size:128.779px;fill:#414141;stroke:#414141;stroke-width:0.37px;stroke-miterlimit:1.41421;">2</text>
                </g>
            </g>
        </g>
    </g>
</svg>
